<svg id="layer1" xmlns="http://www.w3.org/2000/svg" viewBox="0 0 82.61 78.01"><defs><style>.cls-1{fill:#99cbe3;}.cls-2{fill:#172a88;}.cls-3{fill:#2ea7e0;}.cls-4{fill:#036eb8;}.cls-5{fill:#515151;}</style></defs><polygon class="cls-1" points="45.11 16.05 39.37 12.74 37.62 13.75 40.48 18.72 45.11 16.05"/><polygon class="cls-1" points="21.64 29.6 35.52 21.59 32.65 16.62 18.77 24.63 15.9 29.6 21.64 29.6"/><polygon class="cls-1" points="50.85 12.74 54.36 10.71 57.23 5.74 51.49 5.74 45.11 9.42 50.85 12.74"/><polygon class="cls-1" points="45.11 48.89 50.85 52.21 52.61 51.19 49.74 46.22 45.11 48.89"/><polygon class="cls-1" points="39.37 52.21 35.86 54.23 32.99 59.2 38.73 59.2 45.11 55.52 39.37 52.21"/><polygon class="cls-2" points="80.95 29.6 80.06 29.6 74.32 29.6 68.58 29.6 50.08 29.6 46.77 29.6 43.45 29.6 41.8 32.47 43.45 35.34 46.77 35.34 50.08 35.34 68.58 35.34 74.32 35.34 71.45 40.31 62.2 56.34 61.15 58.15 60.55 59.2 57.23 59.2 51.49 59.2 38.73 59.2 32.99 59.2 29.68 59.2 29.07 58.15 28.02 56.34 18.77 40.31 15.9 35.34 14.24 32.47 15.9 29.6 18.77 24.63 28.02 8.61 29.07 6.79 29.68 5.74 32.99 5.74 38.73 5.74 51.49 5.74 57.23 5.74 60.1 0.77 60.55 0 29.68 0 28.79 0 26.36 0 26.36 0 24.71 2.87 9.27 29.6 7.62 32.47 9.27 35.34 24.71 62.07 26.36 64.94 26.36 64.94 28.79 64.94 29.68 64.94 60.55 64.94 61.43 64.94 63.86 64.94 63.86 64.94 65.52 62.07 80.95 35.34 82.61 32.47 80.95 29.6"/><polygon class="cls-3" points="65.52 2.87 63.86 0 63.86 0 61.43 0 60.55 0 60.1 0.77 57.23 5.74 54.36 10.71 52.61 13.75 49.74 18.72 45.11 26.73 43.45 29.6 46.77 29.6 50.08 29.6 54.71 21.59 57.58 16.62 62.2 8.61 71.45 24.63 74.32 29.6 80.06 29.6 80.95 29.6 65.52 2.87"/><polygon class="cls-3" points="54.71 43.35 50.08 35.34 46.77 35.34 43.45 35.34 41.8 32.47 40.14 35.34 35.52 43.35 32.65 48.32 28.02 56.34 29.07 58.15 29.68 59.2 32.99 59.2 35.86 54.23 37.62 51.19 40.48 46.22 45.11 38.21 49.74 46.22 52.61 51.19 54.36 54.23 57.23 59.2 60.55 59.2 61.15 58.15 62.2 56.34 57.58 48.32 71.45 40.31 74.32 35.34 68.58 35.34 54.71 43.35"/><polygon class="cls-4" points="50.85 52.21 45.11 48.89 40.48 46.22 37.62 51.19 39.37 52.21 45.11 55.52 51.49 59.2 57.23 59.2 54.36 54.23 50.85 52.21"/><polygon class="cls-4" points="40.14 35.34 41.8 32.47 43.45 29.6 45.11 26.73 40.48 18.72 37.62 13.75 35.86 10.71 39.37 12.74 45.11 16.05 49.74 18.72 52.61 13.75 50.85 12.74 45.11 9.42 38.73 5.74 32.99 5.74 29.68 5.74 29.07 6.79 28.02 8.61 32.65 16.62 35.52 21.59 40.14 29.6 21.64 29.6 15.9 29.6 14.24 32.47 15.9 35.34 18.77 40.31 32.65 48.32 35.52 43.35 21.64 35.34 40.14 35.34"/><polygon class="cls-4" points="71.45 24.63 57.58 16.62 54.71 21.59 68.58 29.6 74.32 29.6 71.45 24.63"/><path class="cls-5" d="M23.67,40.94.45,60.38a1.66,1.66,0,0,0,1.21,2.79h9.15V77.66a.35.35,0,0,0,.35.35H38.39a.28.28,0,0,0,.28-.27V63.17h10a1.44,1.44,0,0,0,1-2.43L26.15,40.94A1.69,1.69,0,0,0,23.67,40.94Z"/></svg>